/* XPM */
static char * test_xpm[] = {
"96 68 2 1",
" 	g #FFFFFF",
".	g #000000",
"                                                                                                ",
"                                                                                                ",
"                                                                                                ",
"                                                                                                ",
"                                                                    .............               ",
"                                                    .................            ..             ",
"                                                  ..             . ..             ........      ",
"           .....                                ..              .   .            ...     .      ",
"         ..     ...                           ..              ..  ..            ...             ",
"         .         .  ..........   ............               .....                             ",
"        .         ....          .....        ....                                               ",
"        .        .   .            . ..                                                          ",
"                 .   .            ....                                                          ",
"                 ..   .                                                                         ",
"                   ...                                                                          ",
"                                                                    .                           ",
"                                                                    ..                          ",
"                                                                    ..                          ",
"                ..............                                      ..                          ",
"            .....            ..                                     ..                          ",
"        .....    ..                                                 . .                         ",
"      ...         .                                                 . .                         ",
"      .           ..                                                . .                         ",
"      .            .                                                . .                         ",
"                   .                                               .. .                         ",
"                    .                                             .....                         ",
"                    .                                              . .                          ",
"                    .                                      .       . .                          ",
"                    ..                                     ..............       .               ",
"                     .                                             .  . .........               ",
"                    .                                              .   .                        ",
"                     .                                             .   .                        ",
"                     .                                             .. ..                        ",
"                     .              .....     .                     .  .                        ",
"                      .            ..   ..   ...                    .  .                        ",
"                      .            .     .   . .                    .   .                       ",
"                      .          ..     ..    . .                  .    .                       ",
"                      .         .       .     .  ..               .     .                       ",
"                      .         .     ..     ..    ..             .      .                      ",
"                      .          .   ..     ..       ..          .       ..                     ",
"                      .          ....      ..         ..        .         .                     ",
"                      .           ....     .            .      .           .                    ",
"               .      .              ......              .   ..             ...                 ",
"               ..     .                                  ....                 ...               ",
"                .     .                          .........                                      ",
"                 ..  .                             ......                                       ",
"                  ....                                                                          ",
"                                                                                                ",
"                                                                                                ",
"                                                                                                ",
"                                                                                                ",
"                                                                                                ",
"                                                                                                ",
"                                                                                                ",
"                                                                                                ",
"                                                                                                ",
"                                                                                                ",
"                                                                                                ",
"                   ............    ...........................................                  ",
"             ......            ....          .. ..          ... ..            ....              ",
"            ..                ..  ..       .......          .     .               .             ",
"            .               ..      .      .                 .....              ..              ",
"                            .    ...                                         ...                ",
"                            .....                                                               ",
"                                                                                                ",
"                                                                                                ",
"                                                                                                ",
"                                                                                                "};
