/* XPM */
static char * arrow_up_xpm[] = {
"5 7 3 1",
" 	c None",
".	c #FFFFFF",
"+	c #000000",
"..+..",
".+++.",
"+++++",
"..+..",
"..+..",
"..+..",
"..+.."};
