/* XPM */
static char * arrow_down_xpm[] = {
"5 7 3 1",
" 	c None",
".	c #FFFFFF",
"+	c #000000",
"..+..",
"..+..",
"..+..",
"..+..",
"+++++",
".+++.",
"..+.."};
