/* XPM */
static char * brick5x5_xpm[] = {
"5 5 2 1",
" 	g #FFFFFF",
".	g #000000",
".....",
".   .",
". ...",
".....",
"....."};
