/* XPM */
static char * brick_xpm[] = {
"4 4 2 1",
" 	g #000000",
".	g #FFFFFF",
"    ",
" .. ",
" .  ",
"    "};
