/* XPM */
static char * cat2_xpm[] = {
"8 5 3 1",
" 	g None",
".	g #000000",
"+	g #FFFFFF",
".+.+++++",
"...+++++",
"........",
"+.....++",
".+.+.+.+"};
