/* XPM */
static char * checkpoint_xpm[] = {
"9 12 3 1",
" 	c None",
".	c #000000",
"+	c #FFFFFF",
".........",
".+++++++.",
".++++.++.",
".+.+.+++.",
".++.++.+.",
".+++++++.",
".........",
".++++++++",
".++++++++",
".++++++++",
".++++++++",
".++++++++"};
