/* XPM */
static char * cthulhu3_xpm[] = {
"13 13 7 1",
" 	c None",
".	c #FFFFFF",
"+	c #000000",
"@	c #040404",
"#	c #020202",
"$	c #070707",
"%	c #010101",
".....+++.....",
"....+@+++....",
"...#.$++.+...",
"...+..+..%...",
"...%+++++%...",
"....+++++....",
"+++.+.+.+.+++",
"+.+.+.+.+...+",
"..+++.+.+++++",
"......+.+....",
"....+++.+.++.",
"....+...+..+.",
"....++..++++."};
