/* XPM */
static char * datenkrake1_xpm[] = {
"15 15 2 1",
" 	g #FFFFFF",
".	g #000000",
"          .    ",
"          .    ",
"         .     ",
"        .      ",
"       .       ",
"       .       ",
".      .      .",
".       .     .",
". ... ... ... .",
" .   .....   . ",
" .. . ... .    ",
".  ... .. ..  .",
"    .  .  . .. ",
"    .......    ",
"     .....     "};
