/* XPM */
static char * datenkrake4_xpm[] = {
"15 15 2 1",
" 	c #FFFFFF",
".	c #000000",
"         .     ",
"        .      ",
".       .     .",
" .     .     . ",
"  .    .    .  ",
"  .    .    .  ",
"   .    .  .   ",
"   .    .  .   ",
"    . ... .    ",
"     .....     ",
"   .. ... .    ",
" .. .  .  .   .",
".   .. .. . .. ",
"    ........   ",
"     .....     "};
