/* XPM */
static char * document_xpm[] = {
"6 7 3 1",
" 	g None",
".	g #FFFFFF",
"+	g #000000",
"..++++",
".+...+",
"+.++.+",
"+....+",
"+.++.+",
"+....+",
"++++++"};
