/* XPM */
static char * encrypted_xpm[] = {
"9 10 3 1",
" 	c None",
".	c #FFFFFF",
"+	c #000000",
"..+++++++",
".+......+",
"+..++...+",
"+.+.+.+.+",
"+.+++...+",
"+..+..+.+",
"+.++....+",
"+..+..+.+",
"+.......+",
"+++++++++"};
