/* XPM */
static char * geist1_xpm[] = {
"10 10 2 1",
" 	c #FFFFFF",
".	c #000000",
"    ..    ",
"   ....   ",
"   ....   ",
"  ......  ",
"  . .. .  ",
" ........ ",
" ...  ... ",
"...    ...",
"..........",
". . . . . "};
