/* XPM */
static char * giraffe4_xpm[] = {
"9 10 2 1",
" 	c #FFFFFF",
".	c #000000",
"    .    ",
"  ..     ",
" ...     ",
"   .     ",
"   .     ",
"   .   . ",
"   ....  ",
"   ....  ",
"  .    . ",
"  .    . "};
