/* XPM */
static char * giraffe3_xpm[] = {
"9 10 2 1",
" 	c #FFFFFF",
".	c #000000",
"    .    ",
"  ..     ",
" ...     ",
"   .     ",
"   .     ",
"   .   . ",
"   ....  ",
"   ....  ",
"  .    . ",
" .      ."};
