/* XPM */
static char * giraffe7_xpm[] = {
"9 10 2 1",
" 	c #FFFFFF",
".	c #000000",
"    .    ",
"  ..     ",
" ...     ",
"   .     ",
"   .     ",
"   .   . ",
"   ....  ",
"   ....  ",
"   .  .  ",
"   .  .  "};
