/* XPM */
static char * hacker3_xpm[] = {
"5 8 3 1",
" 	g None",
".	g #FFFFFF",
"+	g #000000",
".++..",
".+...",
"+++++",
"+++..",
"+++..",
".+.+.",
"+...+",
"+...+"};
