/* XPM */
static char * hacker1_xpm[] = {
"5 8 3 1",
" 	g None",
".	g #FFFFFF",
"+	g #000000",
".++..",
".+...",
"+++++",
"+++..",
"+++..",
".++..",
".++..",
".++.."};
