/* XPM */
static char * hund1_xpm[] = {
"8 5 2 1",
" 	c #000000",
".	c #FFFFFF",
" .. ... ",
".  ... .",
".     ..",
"..    ..",
".. .. .."};
