/* XPM */
static char * hund2_xpm[] = {
"8 5 2 1",
" 	c #000000",
".	c #FFFFFF",
" .. ... ",
".  ... .",
".     ..",
"..    ..",
". .  . ."};
