/* XPM */
static char * key_xpm[] = {
"5 8 3 1",
" 	c None",
".	c #FFFFFF",
"+	c #000000",
".+++.",
".+.+.",
".+++.",
"..+..",
"..+..",
".++..",
"..+..",
"....."};
