/* XPM */
static char * key2_xpm[] = {
"3 8 3 1",
" 	c None",
".	c #000000",
"+	c #FFFFFF",
"...",
".+.",
"...",
"+.+",
"+.+",
"..+",
"+.+",
"..+"};
