/* XPM */
static char * Killer_Kaninchen4_xpm[] = {
"7 5 2 1",
" 	c #FFFFFF",
".	c #000000",
" .     ",
" .  .. ",
"  ..   ",
"  .....",
"   ... "};
