/* XPM */
static char * minivogel1_xpm[] = {
"9 7 3 1",
" 	c None",
".	c #FFFFFF",
"+	c #000000",
"....++...",
"....+.+..",
"..+.+..+.",
".+.+++++.",
"++++....+",
"...+++++.",
"........."};
