/* XPM */
static char * minivogel2_xpm[] = {
"9 7 3 1",
" 	c None",
".	c #FFFFFF",
"+	c #000000",
".........",
".........",
"..+......",
".+.+++++.",
"+++++..++",
"...++.++.",
"....++..."};
