/* XPM */
static char * Pilz4_xpm[] = {
"7 7 2 1",
" 	c #FFFFFF",
".	c #000000",
"       ",
"  ...  ",
" ..... ",
".......",
"  ...  ",
"  ...  ",
"  ...  "};
