/* XPM */
static char * Pilz6_xpm[] = {
"7 7 2 1",
" 	c #FFFFFF",
".	c #000000",
"  ...  ",
" ..... ",
".......",
"  ...  ",
"  ...  ",
"       ",
"       "};
