/* XPM */
static char * rotor4_xpm[] = {
"9 9 3 1",
" 	c None",
".	c #FFFFFF",
"+	c #000000",
".........",
".........",
".........",
".........",
"....+++++",
"....+.+++",
"...++...+",
"...++....",
"..+++...."};
