/* XPM */
static char * schlange5_xpm[] = {
"10 6 2 1",
" 	c #FFFFFF",
".	c #000000",
"       ...",
"       . .",
"         .",
" ..      .",
"...      .",
"  ........"};
