/* XPM */
static char * schlange6_xpm[] = {
"10 6 2 1",
" 	c #FFFFFF",
".	c #000000",
"       ...",
"         .",
" ..      .",
"...      .",
"  .      .",
"  ........"};
