/* XPM */
static char * schlange1_xpm[] = {
"10 6 2 1",
" 	c #FFFFFF",
".	c #000000",
"          ",
"        ..",
"         .",
" ..      .",
"... ...  .",
"  ... ...."};
