/* XPM */
static char * schrift_xpm[] = {
"8 564 3 1",
" 	c None",
".	c #FFFFFF",
"+	c #000000",
"........",
"........",
".+.+++++",
"........",
"........",
"........",
"........",
".....+++",
"........",
".....+++",
"........",
"........",
"...+.+..",
".+++++++",
"...+.+..",
".+++++++",
"...+.+..",
"........",
"..+..+..",
"..+.+.+.",
".+++++++",
"..+.+.+.",
"...+..+.",
"........",
"..+...++",
"...+..++",
"....+...",
".++..+..",
".++...+.",
"........",
"..++.++.",
".+..+..+",
".+.+.+.+",
"..+...+.",
".+.+....",
"........",
"........",
"........",
"......++",
"........",
"........",
"........",
"........",
"...+++..",
"..+...+.",
".+.....+",
"........",
"........",
"........",
".+.....+",
"..+...+.",
"...+++..",
"........",
"........",
"...+.+..",
"....+...",
"..+++++.",
"....+...",
"...+.+..",
"........",
"....+...",
"....+...",
"..+++++.",
"....+...",
"....+...",
"........",
"........",
".+.+....",
"..++....",
"........",
"........",
"........",
"....+...",
"....+...",
"....+...",
"....+...",
"....+...",
"........",
"........",
".++.....",
".++.....",
"........",
"........",
"........",
"..+.....",
"...+....",
"....+...",
".....+..",
"......+.",
"........",
"..+++++.",
".+.+...+",
".+..+..+",
".+...+.+",
"..+++++.",
"........",
"........",
".+....+.",
".+++++++",
".+......",
"........",
"........",
".+....+.",
".++....+",
".+.+...+",
".+..+..+",
".+...++.",
"........",
"..+....+",
".+.....+",
".+...+.+",
".+..+.++",
"..++...+",
"........",
"...++...",
"...+.+..",
"...+..+.",
".+++++++",
"...+....",
"........",
"..+..+++",
".+...+.+",
".+...+.+",
".+...+.+",
"..+++..+",
"........",
"..++++..",
".+..+.+.",
".+..+..+",
".+..+..+",
"..++....",
"........",
"......++",
".+++...+",
"....+..+",
".....+.+",
"......++",
"........",
"..++.++.",
".+..+..+",
".+..+..+",
".+..+..+",
"..++.++.",
"........",
".....++.",
".+..+..+",
".+..+..+",
"..+.+..+",
"...++++.",
"........",
"........",
"..++.++.",
"..++.++.",
"........",
"........",
"........",
"........",
".+.+.++.",
"..++.++.",
"........",
"........",
"........",
"....+...",
"...+.+..",
"..+...+.",
".+.....+",
"........",
"........",
"...+.+..",
"...+.+..",
"...+.+..",
"...+.+..",
"...+.+..",
"........",
"........",
".+.....+",
"..+...+.",
"...+.+..",
"....+...",
"........",
"......+.",
".......+",
".+.+...+",
"....+..+",
".....++.",
"........",
"..++..+.",
".+..+..+",
".++++..+",
".+.....+",
"..+++++.",
"........",
".++++++.",
"...+...+",
"...+...+",
"...+...+",
".++++++.",
"........",
".+++++++",
".+..+..+",
".+..+..+",
".+..+..+",
"..++.++.",
"........",
"..+++++.",
".+.....+",
".+.....+",
".+.....+",
"..+...+.",
"........",
".+++++++",
".+.....+",
".+.....+",
".+.....+",
"..+++++.",
"........",
".+++++++",
".+..+..+",
".+..+..+",
".+..+..+",
".+.....+",
"........",
".+++++++",
"....+..+",
"....+..+",
"....+..+",
".......+",
"........",
"..+++++.",
".+.....+",
".+.....+",
".+..+..+",
".++++.+.",
"........",
".+++++++",
"....+...",
"....+...",
"....+...",
".+++++++",
"........",
"........",
".+.....+",
".+++++++",
".+.....+",
"........",
"........",
"..+.....",
".+......",
".+.....+",
"..++++++",
".......+",
"........",
".+++++++",
"....+...",
"...+.+..",
"..+...+.",
".+.....+",
"........",
".+++++++",
".+......",
".+......",
".+......",
".+......",
"........",
".+++++++",
"......+.",
"....++..",
"......+.",
".+++++++",
"........",
".+++++++",
".....+..",
"....+...",
"...+....",
".+++++++",
"........",
"..+++++.",
".+.....+",
".+.....+",
".+.....+",
"..+++++.",
"........",
".+++++++",
"....+..+",
"....+..+",
"....+..+",
".....++.",
"........",
"..+++++.",
".+.....+",
".+.+...+",
"..+....+",
".+.++++.",
"........",
".+++++++",
"....+..+",
"...++..+",
"..+.+..+",
".+...++.",
"........",
"..+..++.",
".+..+..+",
".+..+..+",
".+..+..+",
"..++..+.",
"........",
".......+",
".......+",
".+++++++",
".......+",
".......+",
"........",
"..++++++",
".+......",
".+......",
".+......",
"..++++++",
"........",
"...+++++",
"..+.....",
".+......",
"..+.....",
"...+++++",
"........",
"..++++++",
".+......",
"..+++...",
".+......",
"..++++++",
"........",
".++...++",
"...+.+..",
"....+...",
"...+.+..",
".++...++",
"........",
".....+++",
"....+...",
".+++....",
"....+...",
".....+++",
"........",
".++....+",
".+.+...+",
".+..+..+",
".+...+.+",
".+....++",
"........",
"........",
".+++++++",
".+.....+",
".+.....+",
"........",
"........",
"......+.",
".....+..",
"....+...",
"...+....",
"..+.....",
"........",
"........",
".+.....+",
".+.....+",
".+++++++",
"........",
"........",
".....+..",
"......+.",
".......+",
"......+.",
".....+..",
"........",
".+......",
".+......",
".+......",
".+......",
".+......",
"........",
"........",
".......+",
"......+.",
".....+..",
"........",
"........",
"..+.....",
".+.+.+..",
".+.+.+..",
".+.+.+..",
".++++...",
"........",
".+++++++",
".+..+...",
".+...+..",
".+...+..",
"..+++...",
"........",
"..+++...",
".+...+..",
".+...+..",
".+...+..",
"..+.....",
"........",
"..+++...",
".+...+..",
".+...+..",
".+..+...",
".+++++++",
"........",
"..+++...",
".+.+.+..",
".+.+.+..",
".+.+.+..",
"...++...",
"........",
"....+...",
".++++++.",
"....+..+",
".......+",
"......+.",
"........",
"....+...",
".+.+.+..",
".+.+.+..",
".+.+.+..",
"..++++..",
"........",
".+++++++",
"....+...",
".....+..",
".....+..",
".++++...",
"........",
"........",
".+..+...",
".+++++.+",
".+......",
"........",
"........",
"..+.....",
".+......",
".+...+..",
"..++++.+",
"........",
"........",
".+++++++",
"...+....",
"..+.+...",
".+...+..",
"........",
"........",
"........",
".+.....+",
".+++++++",
".+......",
"........",
"........",
".+++++..",
".....+..",
".++++...",
".....+..",
".++++...",
"........",
".+++++..",
"....+...",
".....+..",
".....+..",
".++++...",
"........",
"..+++...",
".+...+..",
".+...+..",
".+...+..",
"..+++...",
"........",
".+++++..",
"...+.+..",
"...+.+..",
"...+.+..",
"....+...",
"........",
"....+...",
"...+.+..",
"...+.+..",
"...++...",
".+++++..",
"........",
".+++++..",
"....+...",
".....+..",
".....+..",
"....+...",
"........",
".+..+...",
".+.+.+..",
".+.+.+..",
".+.+.+..",
"..+.....",
"........",
".....+..",
"..++++++",
".+...+..",
".+......",
"..+.....",
"........",
"..++++..",
".+......",
".+......",
"..+.....",
".+++++..",
"........",
"...+++..",
"..+.....",
".+......",
"..+.....",
"...+++..",
"........",
"..++++..",
".+......",
"..++....",
".+......",
"..++++..",
"........",
".+...+..",
"..+.+...",
"...+....",
"..+.+...",
".+...+..",
"........",
"....++..",
".+.+....",
".+.+....",
".+.+....",
"..++++..",
"........",
".+...+..",
".++..+..",
".+.+.+..",
".+..++..",
".+...+..",
"........",
"........",
"....+...",
"..++.++.",
".+.....+",
"........",
"........",
"........",
"........",
".+++++++",
"........",
"........",
"........",
"........",
".+.....+",
"..++.++.",
"....+...",
"........",
"........",
"...+....",
"....+...",
"....+...",
"...+....",
"....+...",
"........"};
