/* XPM */
static char * sickle2_xpm[] = {
"3 3 3 1",
" 	c None",
".	c #000000",
"+	c #FFFFFF",
"...",
".++",
"+.+"};
