/* XPM */
static char * sickle_1_xpm[] = {
"3 3 3 1",
" 	c None",
".	c #FFFFFF",
"+	c #000000",
".+.",
"+.+",
"..+"};
