/* XPM */
static char * sickle1_xpm[] = {
"3 3 3 1",
" 	c None",
".	c #FFFFFF",
"+	c #000000",
".++",
"+.+",
"..+"};
