/* XPM */
static char * spike_up_xpm[] = {
"5 5 3 1",
" 	c None",
".	c #FFFFFF",
"+	c #000000",
"..+..",
"..+..",
".+.+.",
"+...+",
"+++++"};
