/* XPM */
static char * spike_left_xpm[] = {
"5 5 3 1",
" 	c None",
".	c #FFFFFF",
"+	c #000000",
"...++",
"..+.+",
"++..+",
"..+.+",
"...++"};
