/* XPM */
static char * spike_right_xpm[] = {
"5 5 3 1",
" 	c None",
".	c #000000",
"+	c #FFFFFF",
"..+++",
".+.++",
".++..",
".+.++",
"..+++"};
