/* XPM */
static char * spirale6_xpm[] = {
"10 10 2 1",
" 	c #000000",
".	c #FFFFFF",
"          ",
" ........ ",
"..      . ",
".  .... . ",
". ..  . . ",
". .   . . ",
". . ... . ",
". .     . ",
". ....... ",
".         "};
