/* XPM */
static char * spirale8_xpm[] = {
"10 10 2 1",
" 	c #FFFFFF",
".	c #000000",
"        ..",
".......  .",
".     .. .",
". ...  . .",
". . .. . .",
". . .. . .",
". .    . .",
". ...... .",
".        .",
".........."};
