/* XPM */
static char * spirale2_xpm[] = {
"10 10 2 1",
" 	c #000000",
".	c #FFFFFF",
"         .",
" ....... .",
" .     . .",
" . ... . .",
" . .   . .",
" . .  .. .",
" . ....  .",
" .      ..",
" ........ ",
"          "};
