/* XPM */
static char * splosion2_xpm[] = {
"7 5 3 1",
" 	c None",
".	c #000000",
"+	c #FFFFFF",
".+++++.",
"+..+..+",
"+++++++",
"+..+..+",
".+++++."};
