/* XPM */
static char * splosion4_xpm[] = {
"7 5 3 1",
" 	c None",
".	c #000000",
"+	c #FFFFFF",
".+++++.",
"+++++++",
"+++++++",
"+++++++",
".+++++."};
