/* XPM */
static char * splosion1_xpm[] = {
"7 5 3 1",
" 	c None",
".	c #FFFFFF",
"+	c #000000",
".......",
"..+.+..",
".......",
"..+.+..",
"......."};
