/* XPM */
static char * splosion3_xpm[] = {
"7 5 3 1",
" 	c None",
".	c #000000",
"+	c #FFFFFF",
".+++++.",
"+.+++.+",
"+++++++",
"+.+++.+",
".+++++."};
