/* XPM */
static char * trojaner2_xpm[] = {
"19 15 3 1",
" 	c None",
".	c #FFFFFF",
"+	c #000000",
"....+..............",
"...++..............",
"..+.++.............",
".+++++.............",
"+++++++............",
"+++.+++.+..+..++++.",
"....++++.++.++.++++",
".....+++.++.+++.+++",
".....+++....+++.+++",
".....++++++++++..++",
".....++++++++++..++",
".....+........+...+",
".....+........+....",
".....+........+....",
".....+........+...."};
