/* XPM */
static char * trojanerklein4_xpm[] = {
"12 9 3 1",
" 	c None",
".	c #FFFFFF",
"+	c #000000",
"....+.......",
"..++........",
".+.++.......",
"++++++....++",
".+..++++++.+",
"....++++++.+",
"....++++++..",
"....+....++.",
"....+......."};
