/* XPM */
static char * trojanerklein3_xpm[] = {
"12 9 3 1",
" 	c None",
".	c #FFFFFF",
"+	c #000000",
"....+.......",
"..++........",
".+.++.......",
"++++++....++",
".+..++++++.+",
"....++++++.+",
"...+++++++..",
"...+.....+..",
".........+.."};
