/* XPM */
static char * trojaner3_xpm[] = {
"19 15 3 1",
" 	c None",
".	c #FFFFFF",
"+	c #000000",
".....+.............",
"...++..............",
"..+.++.............",
".+++++.............",
"+++++++............",
"+++.+++.+..+..++++.",
".+..++++.++.++.++++",
".....+++.++.+++.+++",
".....+++....+++.+++",
".....++++++++++..++",
"..+++++++++++++..++",
"..+...........+...+",
"..............+....",
"..............+....",
"..............+...."};
