/* XPM */
static char * tube_top_left_xpm[] = {
"5 5 3 1",
" 	g None",
".	g #000000",
"+	g #FFFFFF",
".....",
".++++",
".++++",
"..+++",
"+.+++"};
