/* XPM */
static char * tube_right_xpm[] = {
"5 5 3 1",
" 	g None",
".	g #FFFFFF",
"+	g #000000",
"...+.",
"...+.",
"...+.",
"...+.",
"...+."};
