/* XPM */
static char * tube_top_right_xpm[] = {
"5 5 3 1",
" 	g None",
".	g #000000",
"+	g #FFFFFF",
".....",
"++++.",
"++++.",
"+++..",
"+++.+"};
