/* XPM */
static char * vogel3_xpm[] = {
"25 17 3 1",
" 	c None",
".	c #FFFFFF",
"+	c #000000",
"..++.................++..",
"...++...............++...",
"...+.+.............+.+...",
"....+.+...........+.+....",
"....++.++.......++.++....",
".....+..+++...+++..+.....",
".....++...++.++...++.....",
"......++.+++++++.++......",
".......++++.+.++++.......",
"..........++.++..........",
"..........++.++..........",
"..........+++++..........",
"..........+++++..........",
"..........++.++..........",
".........++...++.........",
".........+.....+.........",
"........+.+...+.+........"};
